<?xml version="1.0" encoding="iso-8859-1"?>
<!-- Generator: Adobe Illustrator 19.0.0, SVG Export Plug-In . SVG Version: 6.00 Build 0)  -->
<svg version="1.1" id="Capa_1" xmlns="http://www.w3.org/2000/svg" xmlns:xlink="http://www.w3.org/1999/xlink" x="0px" y="0px"
	 viewBox="0 0 512 512" style="enable-background:new 0 0 512 512;" xml:space="preserve">
<g>
	<g>
		<g>
			<path d="M512,352c-0.035-29.441-23.893-53.298-53.333-53.333H384v-41.525c0.2-15.922-11.032-29.701-26.667-32.715
				c-1.769-0.299-3.56-0.449-5.354-0.448C334.306,223.991,319.988,238.327,320,256v149.333c0.014,12.009,3.995,23.087,10.699,32
				h-0.032c-5.891,0-10.667,4.776-10.667,10.667v53.333c0,5.891,4.776,10.667,10.667,10.667h170.667
				c5.891,0,10.667-4.776,10.667-10.667V448c0-5.891-4.776-10.667-10.667-10.667h-0.032c6.704-8.913,10.684-19.991,10.699-32V352z
				 M490.667,490.667H341.333v-32h32h85.333h32V490.667z M373.333,437.333c-17.673,0-32-14.327-32-32V256
				c0-5.891,4.776-10.667,10.667-10.667c0.626,0.001,1.25,0.054,1.867,0.16c5.326,1.302,9.003,6.169,8.8,11.648v52.192
				c0,5.891,4.776,10.667,10.667,10.667h85.333c17.673,0,32,14.327,32,32v53.333c0,17.673-14.327,32-32,32H373.333z"/>
			<path d="M199.541,333.792c-15.947-15.947-41.802-15.947-57.749,0L96,379.584V245.333v-10.667V32
				c0-5.891,4.776-10.667,10.667-10.667h320c5.891,0,10.667,4.776,10.667,10.667v256h21.333V32c0-17.673-14.327-32-32-32h-320
				c-17.673,0-32,14.327-32,32v192.782c-36.161,5.211-63.957,36.29-64,73.885V448C4.776,448,0,452.776,0,458.667v42.667
				C0,507.224,4.776,512,10.667,512h138.667c5.891,0,10.667-4.776,10.667-10.667v-42.667c0-5.891-4.776-10.667-10.667-10.667h-6.251
				l42.667-42.667h112.917V384h-93.183C215.14,368.269,213.166,347.417,199.541,333.792z M138.667,490.667H21.333v-21.333h96h21.333
				V490.667z M32,448V298.667c0.028-25.336,17.849-47.167,42.667-52.267v158.933c0.001,2.828,1.124,5.539,3.123,7.539
				c4.165,4.166,10.919,4.167,15.085,0.002l64-64c7.545-7.228,19.446-7.228,26.991,0c7.781,7.453,8.046,19.803,0.593,27.584
				L112.917,448H32z"/>
			<path d="M202.667,96V74.667c0-17.673-14.327-32-32-32h-21.333c-17.673,0-32,14.327-32,32V96c0,17.673,14.327,32,32,32h21.333
				C188.34,128,202.667,113.673,202.667,96z M181.333,96c0,5.891-4.776,10.667-10.667,10.667h-21.333
				c-5.891,0-10.667-4.776-10.667-10.667V74.667c0-5.891,4.776-10.667,10.667-10.667h21.333c5.891,0,10.667,4.776,10.667,10.667V96z
				"/>
			<path d="M277.333,42.667H256c-17.673,0-32,14.327-32,32V96c0,17.673,14.327,32,32,32h21.333c17.673,0,32-14.327,32-32V74.667
				C309.333,56.994,295.006,42.667,277.333,42.667z M288,96c0,5.891-4.776,10.667-10.667,10.667H256
				c-5.891,0-10.667-4.776-10.667-10.667V74.667C245.333,68.776,250.109,64,256,64h21.333C283.224,64,288,68.776,288,74.667V96z"/>
			<path d="M416,74.667c0-17.673-14.327-32-32-32h-21.333c-17.673,0-32,14.327-32,32V96c0,17.673,14.327,32,32,32H384
				c17.673,0,32-14.327,32-32V74.667z M394.667,96c0,5.891-4.776,10.667-10.667,10.667h-21.333C356.776,106.667,352,101.891,352,96
				V74.667C352,68.776,356.776,64,362.667,64H384c5.891,0,10.667,4.776,10.667,10.667V96z"/>
			<path d="M170.667,298.667v-33.828c12.427-4.394,21.333-16.24,21.333-30.172c0-13.932-8.906-25.778-21.333-30.172v-55.161h-21.333
				v55.161C136.906,208.888,128,220.735,128,234.667c0,13.932,8.906,25.778,21.333,30.172v33.828H170.667z M160,224
				c5.891,0,10.667,4.776,10.667,10.667c0,5.891-4.776,10.667-10.667,10.667s-10.667-4.776-10.667-10.667
				C149.333,228.776,154.109,224,160,224z"/>
			<path d="M277.333,268.495V149.333H256v119.161c-12.427,4.394-21.333,16.24-21.333,30.172c0,17.673,14.327,32,32,32
				c17.673,0,32-14.327,32-32C298.667,284.735,289.761,272.888,277.333,268.495z M266.667,309.333
				c-5.891,0-10.667-4.776-10.667-10.667c0-5.891,4.776-10.667,10.667-10.667c5.891,0,10.667,4.776,10.667,10.667
				C277.333,304.558,272.558,309.333,266.667,309.333z"/>
			<rect x="330.667" y="149.333" width="85.333" height="21.333"/>
			<rect x="330.667" y="192" width="85.333" height="21.333"/>
		</g>
	</g>
</g>
<g>
</g>
<g>
</g>
<g>
</g>
<g>
</g>
<g>
</g>
<g>
</g>
<g>
</g>
<g>
</g>
<g>
</g>
<g>
</g>
<g>
</g>
<g>
</g>
<g>
</g>
<g>
</g>
<g>
</g>
</svg>
